<svg xmlns="http://www.w3.org/2000/svg" viewBox="0 0 24 24" fill="none" aria-label="OpenAI"><rect width="24" height="24" rx="6" fill="#000"/><path d="M16.7 9.6a3.4 3.4 0 0 0-.3-2.8 3.5 3.5 0 0 0-3.7-1.6 3.4 3.4 0 0 0-2.6-1.1 3.5 3.5 0 0 0-3.3 2.4 3.4 3.4 0 0 0-2.3 1.7 3.5 3.5 0 0 0 .4 4.1 3.4 3.4 0 0 0 .3 2.8 3.5 3.5 0 0 0 3.8 1.6 3.4 3.4 0 0 0 2.5 1.1 3.5 3.5 0 0 0 3.4-2.4 3.4 3.4 0 0 0 2.2-1.7 3.5 3.5 0 0 0-.4-4.1Zm-5.1 7a2.6 2.6 0 0 1-1.7-.6l.1-.1 2.8-1.6a.5.5 0 0 0 .2-.4v-3.9l1.2.7v3.3a2.6 2.6 0 0 1-2.6 2.6Zm-5.6-2.4a2.6 2.6 0 0 1-.3-1.7l.1.1 2.8 1.6a.5.5 0 0 0 .5 0l3.4-2v1.4a.1.1 0 0 1 0 .1l-2.8 1.6a2.6 2.6 0 0 1-3.6-1Zm-.7-6a2.6 2.6 0 0 1 1.4-1.1v3.4a.5.5 0 0 0 .2.4l3.4 2-1.2.7-2.8-1.6a2.6 2.6 0 0 1-1-3.7Zm9.7 2.3-3.4-2 1.2-.7 2.8 1.6a2.6 2.6 0 0 1-.4 4.7v-3.3a.5.5 0 0 0-.2-.4Zm1.2-1.8-.1-.1-2.8-1.6a.5.5 0 0 0-.5 0l-3.4 2V7.6a.1.1 0 0 1 0-.1l2.8-1.6a2.6 2.6 0 0 1 3.9 2.7Zm-7.4 2.5-1.2-.7v-3.3a2.6 2.6 0 0 1 4.3-2l-.1.1-2.8 1.6a.5.5 0 0 0-.2.4Zm.6-1.4 1.5-.9 1.5.9v1.7l-1.5.9-1.5-.9Z" fill="#fff"/></svg>
